# xmcd
#
# Track frame offsets: 
#        150
#        13932
#        30600
#        48955
#        72396
#        87282
#        103869
#        120253
#        138058
#        153805
#        168861
#        187847
#        212313
#        230735
#        247391
#        261952
#        278351
#        294741
#        311221
#        339866
#
# Disc length: 4736 seconds
#
# Revision: 2
# Processed by: cddbd v1.5.2PL0 Copyright (c) Steve Scherf et al.
# Submitted via: ExactAudioCopy v0.99pb5
#
DISCID=13127e14
DTITLE=Various Artist - Top Of The Pops - 2003-3 - CD 1
DYEAR=2003
DGENRE=Pop
TTITLE0=Lumidee - Never leave you (uh-oooh)
TTITLE1=Stacie Orrico - Stuck
TTITLE2=Rasmus -  In the shadows
TTITLE3=One-T and Cool-T - The magic key  
TTITLE4=Star Search - The Kids - Smile
TTITLE5=Scooter - Maria (I like it loud)
TTITLE6=DJ Ötzi feat. Eric Dikeb - Burger Dance
TTITLE7=Mustafa Sandal - Aya benzer 2003 (moonlight)
TTITLE8=Sean Paul - Get busy
TTITLE9=Wayne Wonder - No letting go
TTITLE10=Sarah Connor - Bounce
TTITLE11=RZA feat. Xavier Naidoo - Ich kenne nichts (das so schön ist 
TTITLE11=wie du)
TTITLE12=Ja Rule - Reign
TTITLE13=Simply Red - Fake
TTITLE14=No Angels - Someday
TTITLE15=Nektarios - Looks like we made it
TTITLE16=Jeanette - Right now
TTITLE17=Tom Albrecht - Wir sind eins
TTITLE18=Martin Kesici - Angel of Berlin
TTITLE19=Datata :O)
EXTD=
EXTT0=
EXTT1=
EXTT2=
EXTT3=
EXTT4=
EXTT5=
EXTT6=
EXTT7=
EXTT8=
EXTT9=
EXTT10=
EXTT11=
EXTT12=
EXTT13=
EXTT14=
EXTT15=
EXTT16=
EXTT17=
EXTT18=
EXTT19=
PLAYORDER=
